<?xml version="1.0" encoding="UTF-8" standalone="no"?>
<svg width="79px" height="688px" viewBox="0 0 79 688" version="1.1" xmlns="http://www.w3.org/2000/svg" xmlns:xlink="http://www.w3.org/1999/xlink">
    <!-- Generator: Sketch 50.2 (55047) - http://www.bohemiancoding.com/sketch -->
    <title>amp-icons-V2</title>
    <desc>Created with Sketch.</desc>
    <defs>
        <polygon id="path-1" points="0.0348766423 0.0552709152 5.14378905 0.0552709152 5.14378905 14.2756686 0.0348766423 14.2756686"></polygon>
        <polygon id="path-3" points="8.14404747e-16 59.1547736 8.14404747e-16 0.0517248418 59.9382187 0.0517248418 59.9382187 59.1547736"></polygon>
    </defs>
    <g id="Page-1" stroke="none" stroke-width="1" fill="none" fill-rule="evenodd">
        <g id="amp-icons-V2" transform="translate(0.000000, -10.000000)">
            <g id="icon_fullscreen" transform="translate(15.000000, 78.000000)" fill="#FFFFFF" fill-rule="nonzero">
                <g id="Full-Screen">
                    <polygon id="Shape" points="0 9.14511494 0 15 5.85488506 15 5.85488506 13.5272989 2.51436782 13.5272989 6.25 9.75574713 5.24425287 8.75 1.47270115 12.4856322 1.47270115 9.14511494"></polygon>
                    <polygon id="Shape" points="15 5.85488506 15 0 9.14511494 0 9.14511494 1.47270115 12.4856322 1.47270115 8.75 5.24425287 9.75574713 6.25 13.5272989 2.51436782 13.5272989 5.85488506"></polygon>
                </g>
            </g>
            <g id="icon_fullscreen-exit" transform="translate(60.000000, 78.000000)" fill="#FFFFFF" fill-rule="nonzero">
                <g id="Exit-Full-Screen-Copy-2">
                    <polygon id="Shape" transform="translate(3.125000, 11.875000) rotate(180.000000) translate(-3.125000, -11.875000) " points="4.4408921e-16 9.14511494 4.4408921e-16 15 5.85488506 15 5.85488506 13.5272989 2.51436782 13.5272989 6.25 9.75574713 5.24425287 8.75 1.47270115 12.4856322 1.47270115 9.14511494"></polygon>
                    <polygon id="Shape" transform="translate(11.875000, 3.125000) rotate(180.000000) translate(-11.875000, -3.125000) " points="15 5.85488506 15 -4.4408921e-16 9.14511494 -4.4408921e-16 9.14511494 1.47270115 12.4856322 1.47270115 8.75 5.24425287 9.75574713 6.25 13.5272989 2.51436782 13.5272989 5.85488506"></polygon>
                </g>
            </g>
            <g id="ICON_pause" transform="translate(61.000000, 10.000000)" fill="#FFFFFF" fill-rule="nonzero">
                <g id="Group">
                    <rect id="Rectangle" x="0" y="0" width="4.6875" height="15"></rect>
                    <rect id="Rectangle-Copy-2" x="8.4375" y="0" width="4.6875" height="15"></rect>
                </g>
            </g>
            <g id="icon_subtitle-OFF" transform="translate(11.000000, 111.000000)">
                <g id="CC">
                    <rect id="Rectangle-2" stroke="#FFFFFF" x="0.5" y="0.5" width="22" height="15" rx="3"></rect>
                    <path d="M10.807,6.248 C10.231,5.096 9.016,4.583 7.756,4.583 C5.848,4.583 4.381,5.942 4.381,7.841 C4.381,9.785 5.821,11.117 7.837,11.117 C9.295,11.117 10.303,10.406 10.897,9.29 L9.871,8.75 C9.457,9.614 8.746,10.001 7.837,10.001 C6.388,10.001 5.533,9.056 5.533,7.841 C5.533,6.599 6.451,5.699 7.756,5.699 C8.737,5.699 9.376,6.095 9.808,6.824 L10.807,6.248 Z M18.718,6.248 C18.142,5.096 16.927,4.583 15.667,4.583 C13.759,4.583 12.292,5.942 12.292,7.841 C12.292,9.785 13.732,11.117 15.748,11.117 C17.206,11.117 18.214,10.406 18.808,9.29 L17.782,8.75 C17.368,9.614 16.657,10.001 15.748,10.001 C14.299,10.001 13.444,9.056 13.444,7.841 C13.444,6.599 14.362,5.699 15.667,5.699 C16.648,5.699 17.287,6.095 17.719,6.824 L18.718,6.248 Z" id="Shape" fill="#FFFFFF" fill-rule="nonzero"></path>
                </g>
            </g>
            <g id="icon_subtitle-ON" transform="translate(56.000000, 111.000000)">
                <g id="CC">
                    <path d="M4,2 L19,2 C20.1045695,2 21,2.8954305 21,4 L21,12 C21,13.1045695 20.1045695,14 19,14 L4,14 C2.8954305,14 2,13.1045695 2,12 L2,4 C2,2.8954305 2.8954305,2 4,2 Z M10.807,6.248 C10.231,5.096 9.016,4.583 7.756,4.583 C5.848,4.583 4.381,5.942 4.381,7.841 C4.381,9.785 5.821,11.117 7.837,11.117 C9.295,11.117 10.303,10.406 10.897,9.29 L9.871,8.75 C9.457,9.614 8.746,10.001 7.837,10.001 C6.388,10.001 5.533,9.056 5.533,7.841 C5.533,6.599 6.451,5.699 7.756,5.699 C8.737,5.699 9.376,6.095 9.808,6.824 L10.807,6.248 Z M18.718,6.248 C18.142,5.096 16.927,4.583 15.667,4.583 C13.759,4.583 12.292,5.942 12.292,7.841 C12.292,9.785 13.732,11.117 15.748,11.117 C17.206,11.117 18.214,10.406 18.808,9.29 L17.782,8.75 C17.368,9.614 16.657,10.001 15.748,10.001 C14.299,10.001 13.444,9.056 13.444,7.841 C13.444,6.599 14.362,5.699 15.667,5.699 C16.648,5.699 17.287,6.095 17.719,6.824 L18.718,6.248 Z" id="Combined-Shape" fill="#FFFFFF" fill-rule="nonzero"></path>
                    <rect id="Rectangle-2" stroke="#FFFFFF" stroke-width="0.5" x="0.25" y="0.25" width="22.5" height="15.5" rx="3"></rect>
                </g>
            </g>
            <g id="icon_sound" transform="translate(13.000000, 44.000000)" fill="#FFFFFF" fill-rule="nonzero">
                <g id="Sound-Off">
                    <path d="M4.3446004,4.95618964 L3.92844589,5.26962248 L3.40693581,5.26962248 L0,5.26962248 L0,9.72484636 L3.40693581,9.72484636 L3.92712894,9.72484636 L4.34328345,10.0382792 L9.70193123,14.0812994 L9.70193123,0.911852502 L4.3446004,4.95618964 Z M16.6103595,0.181738367 C18.5633884,2.13476734 19.6406491,4.73309921 19.6406491,7.49736611 C19.6406491,10.2603161 18.5633884,12.8586479 16.6103595,14.8116769 C16.4892006,14.9328358 16.3285333,15 16.1573305,15 C15.9861277,15 15.8254605,14.9328358 15.7056185,14.8116769 C15.5844596,14.6918349 15.5172954,14.5311677 15.5172954,14.3599649 C15.5172954,14.1874451 15.5844596,14.0267779 15.7056185,13.905619 C17.4163296,12.1935909 18.359262,9.91791045 18.359262,7.49736611 C18.359262,5.07682177 17.4163296,2.79982441 15.7056185,1.08779631 C15.5844596,0.967954346 15.5172954,0.807287094 15.5172954,0.636084284 C15.5172954,0.46356453 15.5844596,0.302897278 15.7056185,0.181738367 C15.9466194,-0.0605794557 16.3680416,-0.0605794557 16.6103595,0.181738367 Z M12.8074184,3.98467954 C13.745083,4.92102722 14.2613253,6.16817384 14.2613253,7.49697103 C14.2613253,8.82445127 13.745083,10.0715979 12.8074184,11.0079456 C12.6902103,11.1277875 12.5282261,11.1962687 12.3543894,11.1962687 C12.1805527,11.1962687 12.0185686,11.1277875 11.9000435,11.0053117 C11.7815185,10.8881036 11.7143543,10.7287533 11.7143543,10.5575505 C11.7130374,10.3850307 11.7802016,10.2243635 11.9026774,10.1032046 C13.3381471,8.66641791 13.3381471,6.32752414 11.9026774,4.89073749 C11.7815185,4.77089552 11.7143543,4.61022827 11.7143543,4.43770852 C11.7143543,4.26650571 11.7815185,4.10583845 11.9026774,3.98467954 C12.1436783,3.74236172 12.5651006,3.74236172 12.8074184,3.98467954 Z M14.6851181,2.10829675 C16.1245386,3.5477173 16.9160223,5.46123793 16.9160223,7.49723442 C16.9160223,9.53454785 16.1232216,11.4480685 14.6838011,12.8861721 C14.5665931,13.0046971 14.4046089,13.0731782 14.2307722,13.0731782 C14.0595694,13.0731782 13.8989021,13.006014 13.7790602,12.8861721 C13.6579013,12.7650132 13.5907371,12.6043459 13.5907371,12.4331431 C13.5907371,12.2619403 13.6579013,12.101273 13.7790602,11.9801141 C14.9761628,10.7843284 15.6359521,9.19214223 15.6359521,7.49723442 C15.6359521,5.80364355 14.9761628,4.21145742 13.7790602,3.01303775 C13.6579013,2.89319579 13.5907371,2.73252853 13.5907371,2.56132572 C13.5907371,2.39012291 13.6579013,2.22945566 13.7790602,2.10829675 C14.020061,1.86597893 14.4428003,1.86597893 14.6851181,2.10829675 Z" id="Fill-1"></path>
                </g>
            </g>
            <g id="icon_sound-OFF" transform="translate(58.000000, 44.000000)" fill="#FFFFFF" fill-rule="nonzero">
                <g id="Group">
                    <polygon id="Fill-1" points="4.3446004 4.95618964 3.92844589 5.26962248 3.40693581 5.26962248 0 5.26962248 0 9.72484636 3.40693581 9.72484636 3.92712894 9.72484636 4.34328345 10.0382792 9.70193123 14.0812994 9.70193123 0.911852502"></polygon>
                    <polygon id="Fill-2" points="16.07615 6.43965 13.60565 3.96915 12.54515 5.02965 15.01565 7.49865 12.54515 9.97065 13.60565 11.02965 16.07615 8.56065 18.54515 11.02965 19.60715 9.97065 17.13665 7.49865 19.60715 5.02965 18.54515 3.96915"></polygon>
                </g>
            </g>
            <g id="ICON_play" transform="translate(17.000000, 10.000000)" fill="#FFFFFF" fill-rule="nonzero">
                <polygon id="Page-1-Copy" points="0 0 0 15 12.700109 7.5008824"></polygon>
            </g>
            <g id="icon_hd-OFF" transform="translate(13.000000, 149.000000)" fill="#FFFFFF" fill-rule="nonzero">
                <g id="HD">
                    <polygon id="h" points="0.72285714 0.85714286 0.72285714 9.8571429 2.42 9.8571429 2.42 6.01285714 7.51142857 6.01285714 7.51142857 9.8571429 9.1957143 9.8571429 9.1957143 0.85714286 7.51142857 0.85714286 7.51142857 4.40571429 2.42 4.40571429 2.42 0.85714286"></polygon>
                    <path d="M10.7228571,0.85714286 L14.5157143,0.85714286 C15.3385714,0.85714286 16.1871429,0.97285714 16.9071429,1.25571429 C18.4885714,1.88571429 19.5942857,3.22285714 19.5942857,5.33142857 C19.5942857,7.4657143 18.4628571,8.9057143 16.7528571,9.51 C16.11,9.7414286 15.3385714,9.8571429 14.5542857,9.8571429 L10.7228571,9.8571429 L10.7228571,0.85714286 Z M12.3814286,2.45142857 L12.3814286,8.2628571 L14.5414286,8.2628571 C15.2357143,8.2628571 15.9171429,8.1342857 16.4828571,7.8642857 C17.3571429,7.4271429 17.9614286,6.64285714 17.9614286,5.33142857 C17.9614286,4.00714286 17.3442857,3.22285714 16.4571429,2.82428571 C15.8914286,2.56714286 15.21,2.45142857 14.5157143,2.45142857 L12.3814286,2.45142857 Z" id="D"></path>
                </g>
            </g>
            <g id="icon_hd-ON" transform="translate(58.000000, 149.000000)" fill="#FFFFFF" fill-rule="nonzero" stroke="#FFFFFF">
                <g id="HD">
                    <polygon id="h" points="0.722857143 0.857142857 0.722857143 9.85714286 2.42 9.85714286 2.42 6.01285714 7.51142857 6.01285714 7.51142857 9.85714286 9.19571429 9.85714286 9.19571429 0.857142857 7.51142857 0.857142857 7.51142857 4.40571429 2.42 4.40571429 2.42 0.857142857"></polygon>
                    <path d="M10.7228571,0.857142857 L14.5157143,0.857142857 C15.3385714,0.857142857 16.1871429,0.972857143 16.9071429,1.25571429 C18.4885714,1.88571429 19.5942857,3.22285714 19.5942857,5.33142857 C19.5942857,7.46571429 18.4628571,8.90571429 16.7528571,9.51 C16.11,9.74142857 15.3385714,9.85714286 14.5542857,9.85714286 L10.7228571,9.85714286 L10.7228571,0.857142857 Z M12.3814286,2.45142857 L12.3814286,8.26285714 L14.5414286,8.26285714 C15.2357143,8.26285714 15.9171429,8.13428571 16.4828571,7.86428571 C17.3571429,7.42714286 17.9614286,6.64285714 17.9614286,5.33142857 C17.9614286,4.00714286 17.3442857,3.22285714 16.4571429,2.82428571 C15.8914286,2.56714286 15.21,2.45142857 14.5157143,2.45142857 L12.3814286,2.45142857 Z" id="D"></path>
                </g>
            </g>
            <g id="icon_info" transform="translate(14.000000, 215.000000)" fill="#FFFFFF" fill-rule="nonzero">
                <path d="M10.4250156,2.1510049 C9.8535737,2.1343784 9.3836008,2.5704466 9.3625788,3.1369163 C9.341282,3.7114931 9.7934617,4.193456 10.3752772,4.2163346 C10.9219186,4.2378392 11.4057688,3.7763502 11.4277526,3.2124914 C11.4498738,2.6429987 11.0009917,2.1678375 10.4250156,2.1510049 M10.1750184,13.2636347 C10.0306121,13.4503052 9.9056479,13.6444644 9.7485323,13.8075692 C9.4717422,14.0950294 9.1823115,14.3716342 8.8835376,14.6362157 C8.7623518,14.7435323 8.5985037,14.7950608 8.4393271,14.6884999 C8.285303,14.585443 8.2621512,14.4309263 8.2963636,14.262119 C8.3179352,14.1556956 8.3400564,14.049066 8.3693224,13.9447037 C9.0660034,11.4580084 9.7636461,8.9716567 10.4609454,6.4850988 C10.4814178,6.4121345 10.499211,6.3383457 10.5237367,6.2437395 C9.3175807,6.4444257 8.1426829,6.6399591 6.9776092,6.8338435 L6.9776092,7.2222995 C7.0720022,7.211238 7.1510753,7.1997644 7.2304918,7.1931 C7.4973891,7.170771 7.7662787,7.1201357 8.0309776,7.1364874 C8.3489873,7.1562743 8.5193619,7.3862287 8.4909891,7.7022013 C8.4752569,7.8778103 8.4449604,8.0548621 8.3968708,8.2243564 C7.9324626,9.8622747 7.4574747,11.49717 6.9978068,13.136325 C6.8406912,13.6964051 6.6930561,14.2615694 6.5876712,14.8330545 C6.4976062,15.3213383 6.813074,15.7254589 7.3013209,15.82034 C7.6952435,15.8968082 8.0635412,15.8044692 8.4071758,15.6108596 C9.1446642,15.1954027 9.7047707,14.5862675 10.2205661,13.9309627 C10.3282868,13.7941718 10.424466,13.6483119 10.5296449,13.5015588 C10.3997342,13.4143726 10.2917387,13.3418893 10.1750184,13.2636347 M8.99469332,17.9999942 C3.94150631,17.9877648 -0.1368358,13.8420589 0.00351720001,8.71909851 C0.13384,3.9638451 4.05685261,0.0015119 9.00238772,4e-07 C13.984883,-0.0015111 18.0158912,4.0568025 17.9999529,9.05506411 C17.984152,13.9798117 13.9313662,18.0055593 8.99469332,17.9999942" id="Fill-1"></path>
            </g>
            <g id="Share" transform="translate(16.000000, 255.000000)">
                <g id="Group">
                    <polygon id="Fill-1" fill="#FFFFFF" fill-rule="nonzero" points="6 12 7.2 12 7.2 1.2 6 1.2"></polygon>
                    <polygon id="Fill-2" fill="#FFFFFF" fill-rule="nonzero" points="9.6 6 9.6 7.2 12 7.2 12 16.8 1.2 16.8 1.2 7.2 3.6 7.2 3.6 6 2.48689958e-14 6 2.48689958e-14 7.2 2.48689958e-14 16.8 2.48689958e-14 18 1.2 18 12 18 13.2 18 13.2 6"></polygon>
                    <polyline id="Stroke-3" stroke="#FFFFFF" points="3.6 3.6 6.6 0.6 9.6 3.6"></polyline>
                </g>
            </g>
            <g id="icon_mail" transform="translate(57.000000, 257.000000)">
                <g id="Group">
                    <rect id="Rectangle" stroke="#FFFFFF" x="0.5" y="0.5" width="20" height="13"></rect>
                    <polygon id="Rectangle-5" fill="#FFFFFF" fill-rule="nonzero" transform="translate(5.757555, 5.519800) rotate(40.000000) translate(-5.757555, -5.519800) " points="-1.06744479 4.99395339 12.5825552 4.99395339 12.4179932 6.04564707 -1.06744479 5.99395339"></polygon>
                    <polygon id="Rectangle-5-Copy" fill="#FFFFFF" fill-rule="nonzero" transform="translate(15.279641, 5.490004) scale(-1, 1) rotate(40.000000) translate(-15.279641, -5.490004) " points="8.50324432 4.96421155 22.0560379 4.98260474 21.9888173 6.01579735 8.50324432 5.96421155"></polygon>
                    <rect id="Rectangle-2" fill="#FFFFFF" fill-rule="nonzero" transform="translate(4.636634, 10.454654) rotate(-45.000000) translate(-4.636634, -10.454654) " x="0.265313338" y="9.95465381" width="8.74264069" height="1"></rect>
                    <rect id="Rectangle-2-Copy" fill="#FFFFFF" fill-rule="nonzero" transform="translate(16.426777, 10.426777) scale(-1, 1) rotate(-45.000000) translate(-16.426777, -10.426777) " x="12.0805826" y="9.92677667" width="8.69238816" height="1"></rect>
                </g>
            </g>
            <g id="icon_twitt" transform="translate(14.000000, 297.000000)" fill="#FFFFFF" fill-rule="nonzero">
                <path d="M0,12.2921031 C1.9006646,12.4667014 3.5985181,12.0024623 5.1030299,10.8500428 C4.0156837,10.7785131 3.1243791,10.3363825 2.4459812,9.4842471 C2.1954314,9.1694849 2.0065897,8.8199751 1.8801213,8.4114181 C2.4024294,8.4948043 2.9006334,8.4864305 3.3939852,8.3461492 C2.2886392,8.0626127 1.4724252,7.4223666 0.9751994,6.3943416 C0.7484799,5.9256026 0.6422417,5.4260682 0.6528851,4.8780516 C1.1413457,5.1309492 1.6398627,5.2830869 2.1839662,5.2916173 C1.4551688,4.7541267 0.9647517,4.0579246 0.7665579,3.1743287 C0.5687163,2.2923762 0.6998412,1.4546797 1.1475674,0.6510656 C3.042519,2.8772532 5.4345006,4.0968199 8.3616251,4.3012745 C8.3459339,4.1980103 8.3329427,4.1159154 8.3210081,4.0336249 C8.1993527,3.193072 8.3452296,2.405462 8.7918601,1.6790907 C9.2531253,0.9288891 9.9030365,0.4057984 10.7467198,0.1618224 C12.0345294,-0.2105784 13.1905488,0.0601625 14.1814003,0.9700148 C14.3046991,1.0832572 14.4046765,1.0903789 14.5509838,1.0558661 C15.2151383,0.8991894 15.8437237,0.6549786 16.4377572,0.3202209 C16.457557,0.3090297 16.478022,0.2987777 16.4985653,0.288956 C16.5040044,0.2864126 16.5110087,0.2872343 16.5367954,0.2841822 C16.4199921,0.6829566 16.2205071,1.0278881 15.9732442,1.3459764 C15.7244552,1.6660212 15.4244451,1.9331622 15.0862048,2.1627774 C15.7447246,2.0983693 16.3697491,1.9179797 16.975639,1.6622256 C16.9804129,1.6703255 16.9851868,1.6784646 16.9899998,1.6865645 C16.9604566,1.7278467 16.9307569,1.7690116 16.9014876,1.8104503 C16.4806046,2.4062838 15.9779789,2.9230745 15.3936106,3.3592182 C15.3086983,3.4226089 15.2774725,3.4892083 15.2815812,3.5958768 C15.3202808,4.5976847 15.1892342,5.5808667 14.9204498,6.5440532 C14.6061572,7.6702947 14.1174618,8.7174544 13.4509985,9.6804844 C12.8561433,10.5400153 12.1477718,11.2915865 11.3139492,11.921737 C10.5630433,12.4892795 9.7446772,12.9352839 8.8576378,13.2541157 C7.5740543,13.7155374 6.2504799,13.9000357 4.8896536,13.8425145 C4.301607,13.8176669 3.7203691,13.741598 3.1471919,13.6139558 C2.5197805,13.4742223 1.9052819,13.2842067 1.324044,13.0083398 C0.8863351,12.8005591 0.4652956,12.5578353 0.037017,12.3303331 C0.0293475,12.3262245 0.0241824,12.3173811 0,12.2921031" id="Fill-1"></path>
            </g>
            <g id="icon_facebook" transform="translate(64.000000, 296.000000)" fill="#FFFFFF" fill-rule="nonzero">
                <path d="M7.4697602,0 C7.4669232,0.0507859 7.4615813,0.1015974 7.4615558,0.1523834 C7.4610957,0.9742109 7.4590765,1.7960383 7.4639839,2.6178403 C7.464674,2.7323195 7.4304759,2.7609712 7.3195749,2.7598211 C6.8725718,2.7551949 6.4253641,2.7557572 5.978412,2.7641661 C5.8263098,2.7670288 5.6732107,2.7905942 5.5232299,2.8188115 C5.2413385,2.8718722 5.0358689,3.1006773 5.0238817,3.4180958 C5.0020031,3.9964984 5.0046356,4.5757955 4.9942842,5.1546837 C4.9924184,5.2600895 5.0629104,5.2422748 5.12415,5.2423259 C5.8522778,5.2428115 6.5804312,5.2426326 7.308559,5.242607 L7.4736197,5.242607 C7.3756772,6.1720383 7.280035,7.0798211 7.1833705,7.9972907 L4.9976325,7.9972907 L4.9976325,8.1695847 C4.9967123,10.7329585 4.9957922,13.2963578 4.9946676,15.8597316 C4.9946676,15.9065048 4.9919839,15.9532524 4.990527,16 L2.0001117,16 C2.0010829,15.761508 2.0028721,15.5229904 2.0028976,15.2844984 C2.0031532,12.9246262 2.0031277,10.5647796 2.0031788,8.2049073 L2.0031788,8.0011502 L0.0102331,8.0011502 C0.0071149,7.9452268 0.002821,7.9038978 0.0027954,7.8625687 C0.002412,7.0361917 0.0047379,6.2097891 9.5e-06,5.3834377 C-0.0006551,5.2691885 0.0335941,5.2401534 0.1446995,5.2411502 C0.7154344,5.2462109 1.286297,5.2396166 1.8570318,5.2457764 C1.9787698,5.2470799 2.0047379,5.2066198 2.0052235,5.092754 C2.0084184,4.35177 2.0048657,3.6103259 2.0314983,2.8700575 C2.0508465,2.3312204 2.1634599,1.8068498 2.4133257,1.3200256 C2.6875749,0.7856613 3.1140542,0.4216486 3.6804695,0.2416102 C3.9944887,0.1418019 4.2620925,0.0766773 4.6505909,0.0303898 C4.6965462,0.0249201 5.1881756,0.010147 5.2333385,0 L7.4697602,0 Z" id="Page-1"></path>
            </g>
            <g id="icon_embed" transform="translate(14.000000, 337.000000)">
                <g id="embed">
                    <g id="Group-3" transform="translate(6.000000, 0.000000)">
                        <g id="Fill-1-Clipped">
                            <g>
                                <mask id="mask-2" fill="white">
                                    <use xlink:href="#path-1"></use>
                                </mask>
                                <g id="path-1"></g>
                                <path d="M5.14378905,0.0568816676 C4.91392774,0.937047305 4.68905912,1.79712591 4.46471606,2.65739402 C3.47340219,6.45940132 2.48103723,10.2610928 1.4953073,14.0644266 C1.45306642,14.2275232 1.39243139,14.2820361 1.2153219,14.2750877 C0.828584672,14.2599277 0.440862044,14.2704134 0.0348766423,14.2704134 C0.135321898,13.8847803 0.230183212,13.5186658 0.326029927,13.1528039 C1.45917591,8.82714416 2.59271606,4.50161075 3.72389124,0.175445677 C3.74373066,0.0995823975 3.76284745,0.054418164 3.8573146,0.0552393318 C4.2782781,0.0590293375 4.6993073,0.0568816676 5.14378905,0.0568816676" id="Fill-1" fill="#FFFFFF" fill-rule="nonzero" mask="url(#mask-2)"></path>
                            </g>
                        </g>
                    </g>
                    <path d="M12,4.07378245 C12.362494,3.70911977 12.7082377,3.3613913 13.0675412,3 C14.3625308,4.30906525 15.6726755,5.63352523 17,6.97530429 C15.6773386,8.32080373 14.364617,9.65616832 13.0436122,11 C12.6944939,10.6136564 12.3556221,10.2384099 12.0035587,9.84866659 C12.9779608,8.88399429 13.9407665,7.93080389 14.9182977,6.96305265 C13.9427912,5.99728989 12.9798015,5.04384291 12,4.07378245" id="Fill-4" fill="#FFFFFF" fill-rule="nonzero"></path>
                    <path d="M3.97606938,3 C4.32827203,3.39117506 4.65916071,3.75868905 4.99981573,4.13701039 C4.0243483,5.10270184 3.06497383,6.05247002 2.08330262,7.02423661 C3.05612884,7.97605116 4.02287413,8.92172662 5,9.87769784 C4.65682661,10.2535252 4.32335815,10.618801 3.97527088,11 C2.6515319,9.66826539 1.33571657,8.34446043 0,7.00057554 C1.32601165,5.66634692 2.64360827,4.3406235 3.97606938,3" id="Fill-6" fill="#FFFFFF" fill-rule="nonzero"></path>
                </g>
            </g>
            <g id="PLAY_black" transform="translate(0.000000, 374.000000)" fill="#000000" fill-rule="nonzero">
                <g id="Oval">
                    <path d="M30,60 C13.4314575,60 0,46.5685425 0,30 C0,13.4314575 13.4314575,0 30,0 C46.5685425,0 60,13.4314575 60,30 C60,46.5685425 46.5685425,60 30,60 Z M30,58 C45.463973,58 58,45.463973 58,30 C58,14.536027 45.463973,2 30,2 C14.536027,2 2,14.536027 2,30 C2,45.463973 14.536027,58 30,58 Z" id="Shape"></path>
                </g>
                <polygon id="Triangle" transform="translate(32.666667, 30.000000) rotate(90.000000) translate(-32.666667, -30.000000) " points="32.6666673 22 43.3333339 38 22.0000006 38"></polygon>
            </g>
            <g id="PLAY_black-Copy" transform="translate(0.000000, 608.000000)" fill="#000000" fill-rule="nonzero">
                <g id="Oval">
                    <path d="M20,40 C8.954305,40 0,31.045695 0,20 C0,8.954305 8.954305,0 20,0 C31.045695,0 40,8.954305 40,20 C40,31.045695 31.045695,40 20,40 Z M20,38.6666667 C30.3093153,38.6666667 38.6666667,30.3093153 38.6666667,20 C38.6666667,9.69068467 30.3093153,1.33333333 20,1.33333333 C9.69068467,1.33333333 1.33333333,9.69068467 1.33333333,20 C1.33333333,30.3093153 9.69068467,38.6666667 20,38.6666667 Z" id="Shape"></path>
                </g>
                <polygon id="Triangle" transform="translate(21.777778, 20.000000) rotate(90.000000) translate(-21.777778, -20.000000) " points="21.7777782 14.6666666 28.8888893 25.3333333 14.6666671 25.3333333"></polygon>
            </g>
            <g id="PLAY_withe" transform="translate(0.000000, 444.000000)" fill="#FFFFFF" fill-rule="nonzero">
                <g id="Group">
                    <path d="M30,60 C13.4314575,60 0,46.5685425 0,30 C0,13.4314575 13.4314575,0 30,0 C46.5685425,0 60,13.4314575 60,30 C60,46.5685425 46.5685425,60 30,60 Z M30,58 C45.463973,58 58,45.463973 58,30 C58,14.536027 45.463973,2 30,2 C14.536027,2 2,14.536027 2,30 C2,45.463973 14.536027,58 30,58 Z" id="Oval"></path>
                    <polygon id="Triangle" transform="translate(32.666667, 30.000000) rotate(90.000000) translate(-32.666667, -30.000000) " points="32.6666673 22 43.3333339 38 22.0000006 38"></polygon>
                </g>
            </g>
            <g id="PLAY_withe-Copy" transform="translate(0.000000, 658.000000)" fill="#FFFFFF" fill-rule="nonzero">
                <g id="Group">
                    <path d="M20,40 C8.954305,40 0,31.045695 0,20 C0,8.954305 8.954305,0 20,0 C31.045695,0 40,8.954305 40,20 C40,31.045695 31.045695,40 20,40 Z M20,38.6666667 C30.3093153,38.6666667 38.6666667,30.3093153 38.6666667,20 C38.6666667,9.69068467 30.3093153,1.33333333 20,1.33333333 C9.69068467,1.33333333 1.33333333,9.69068467 1.33333333,20 C1.33333333,30.3093153 9.69068467,38.6666667 20,38.6666667 Z" id="Oval"></path>
                    <polygon id="Triangle" transform="translate(21.777778, 20.000000) rotate(90.000000) translate(-21.777778, -20.000000) " points="21.7777782 14.6666666 28.8888893 25.3333333 14.6666671 25.3333333"></polygon>
                </g>
            </g>
            <g id="icon_transcript" transform="translate(15.000000, 178.000000)">
                <g id="Transcript-Icon">
                    <g id="Group-3" stroke="#FFFFFF">
                        <polygon id="Fill-1" points="0.5 17.5 13.6428571 17.5 13.6428571 0.5 0.5 0.5"></polygon>
                    </g>
                    <rect id="Rectangle" fill="#FFFFFF" fill-rule="nonzero" x="3" y="4" width="5" height="1"></rect>
                    <rect id="Rectangle-Copy" fill="#FFFFFF" fill-rule="nonzero" x="3" y="7" width="8" height="1"></rect>
                    <rect id="Rectangle-Copy-2" fill="#FFFFFF" fill-rule="nonzero" x="3" y="10" width="8" height="1"></rect>
                </g>
            </g>
            <g id="icon_info-CLOSE" transform="translate(59.000000, 215.000000)" fill="#FFFFFF" fill-rule="nonzero">
                <path d="M8.399066,9.0920673 L5.7015043,11.7896291 L6.3009624,12.3890873 L8.9985242,9.6915255 L11.696086,12.3890873 L12.2955442,11.7896291 L9.5979824,9.0920673 L12.2955442,6.3945056 L11.696086,5.7950474 L8.9985242,8.4926092 L6.3009624,5.7950474 L5.7015043,6.3945056 L8.399066,9.0920673 Z M8.99469332,17.9999942 C3.94150631,17.9877648 -0.1368358,13.8420589 0.00351720001,8.71909851 C0.13384,3.9638451 4.05685261,0.0015119 9.00238772,4e-07 C13.984883,-0.0015111 18.0158912,4.0568025 17.9999529,9.05506411 C17.984152,13.9798117 13.9313662,18.0055593 8.99469332,17.9999942 Z" id="Combined-Shape"></path>
            </g>
            <g id="REPLAY" transform="translate(0.000000, 514.000000)">
                <g id="Page-1">
                    <g id="Group-3">
                        <g id="Fill-1-Clipped">
                            <g>
                                <mask id="mask-4" fill="white">
                                    <use xlink:href="#path-3"></use>
                                </mask>
                                <g id="path-3"></g>
                                <path d="M1.90628986,29.5830088 C1.93585507,44.9515738 14.5013623,57.3223842 30.0042609,57.2457971 C45.5268696,57.1686385 58.0048406,44.8755583 58.0312174,29.6338763 C58.0575942,14.4021964 45.4691884,1.98451929 29.9767246,1.95908553 C14.4804928,1.93393754 1.87701449,14.3367544 1.90628986,29.5830088 M29.9706377,0.0515533782 C46.4523768,0.0529822413 59.9097681,13.3225475 59.9381739,29.6004409 C59.9665797,45.8254664 46.468029,59.1384691 29.9726667,59.1547581 C13.4297681,59.1713329 0.00397101449,45.9154848 -8.69565217e-05,29.5618616 C-0.00385507246,13.27911 13.4312174,0.0501245152 29.9706377,0.0515533782" id="Fill-1" fill="#FFFFFF" fill-rule="nonzero" mask="url(#mask-4)"></path>
                            </g>
                        </g>
                    </g>
                    <path d="M39.9585101,23.861542 C42.9289482,27.501673 42.418517,33.083877 39.9639986,36.529083 C36.8017516,40.9684352 31.2112733,42.5591265 25.9694597,40.5510258 C21.2756302,38.7527782 18.4019632,33.6138204 18.9164385,28.4073996 C19.3841172,23.6758035 24.0161287,17.9334107 31.5631155,18.316945 C30.5451418,17.4023191 29.6094957,16.5620459 28.5866112,15.6431138 C29.2198117,15.0936492 29.6623587,14.7098278 30.058109,14.3661972 C31.7110164,16.0131555 33.3850112,17.6816446 35.0139425,19.3053497 C33.4234307,20.8994859 31.7667681,22.5599368 30.0347106,24.2958889 C29.6895124,23.8701543 29.333626,23.4317884 28.9089888,22.9084478 C29.6118066,22.1947754 30.436816,21.357086 31.3074666,20.4728901 C27.7774896,19.9228514 23.4620783,21.9987021 21.6534706,25.5639061 C19.6282113,29.55628 20.514172,34.3157226 23.8222977,37.2192151 C27.1647989,40.1534248 31.9949744,40.4649029 35.7164715,37.961308 C37.1137299,37.0214193 38.2290525,35.8119657 38.963357,34.2858666 C39.6809072,32.7945038 40.0209058,31.2287882 39.9472442,29.5643182 C39.8730049,27.8763079 39.2998892,26.3533667 38.4347271,24.8479371 C38.9778004,24.4962683 39.4714773,24.1767521 39.9585101,23.861542 Z" id="Fill-4" fill="#FFFFFF" fill-rule="nonzero"></path>
                </g>
            </g>
            <g id="Navigation/Close-Cross" transform="translate(0.000000, 584.000000)" fill="#000000" fill-rule="nonzero">
                <polygon id="Page-1" points="11.3810462 0 6.00043773 5.38060845 0.619829284 0 0 0.618953819 5.38060845 6.00043773 0 11.3810462 0.619829284 12 6.00043773 6.61939155 11.3810462 12 12 11.3810462 6.61939155 6.00043773 12 0.618953819"></polygon>
            </g>
        </g>
    </g>
</svg>